<svg width="19" height="19" viewBox="0 0 19 19" fill="none" xmlns="http://www.w3.org/2000/svg">
    <path d="M13.7404 8.68598C14.1162 8.68598 14.4208 8.38136 14.4208 8.0056C14.4208 7.62984 14.1162 7.32523 13.7404 7.32523C13.3646 7.32523 13.06 7.62984 13.06 8.0056C13.06 8.38136 13.3646 8.68598 13.7404 8.68598Z" fill="#707070"/>
    <path d="M15.3051 2.22245H14.4206V1.54207C14.4206 1.1663 14.116 0.861694 13.7402 0.861694C13.3644 0.861694 13.0598 1.1663 13.0598 1.54207V2.22245H9.9641V1.54207C9.9641 1.1663 9.65949 0.861694 9.28372 0.861694C8.90795 0.861694 8.60334 1.1663 8.60334 1.54207V2.22245H5.54165V1.54207C5.54165 1.1663 5.23704 0.861694 4.86127 0.861694C4.4855 0.861694 4.1809 1.1663 4.1809 1.54207V2.22245H3.33042C1.82979 2.22245 0.608917 3.44332 0.608917 4.94396V15.5578C0.608917 17.0585 1.82979 18.2793 3.33042 18.2793H8.53531C8.91108 18.2793 9.21568 17.9747 9.21568 17.599C9.21568 17.2232 8.91108 16.9186 8.53531 16.9186H3.33042C2.5801 16.9186 1.96967 16.3082 1.96967 15.5578V4.94396C1.96967 4.19364 2.5801 3.5832 3.33042 3.5832H4.1809V4.26358C4.1809 4.63935 4.4855 4.94396 4.86127 4.94396C5.23704 4.94396 5.54165 4.63935 5.54165 4.26358V3.5832H8.60334V4.26358C8.60334 4.63935 8.90795 4.94396 9.28372 4.94396C9.65949 4.94396 9.9641 4.63935 9.9641 4.26358V3.5832H13.0598V4.26358C13.0598 4.63935 13.3644 4.94396 13.7402 4.94396C14.116 4.94396 14.4206 4.63935 14.4206 4.26358V3.5832H15.3051C16.0554 3.5832 16.6658 4.19364 16.6658 4.94396V8.8221C16.6658 9.19788 16.9704 9.50248 17.3462 9.50248C17.722 9.50248 18.0266 9.19788 18.0266 8.8221V4.94396C18.0266 3.44332 16.8057 2.22245 15.3051 2.22245Z" fill="#707070"/>
    <path d="M13.9105 10.0468C11.6408 10.0468 9.79422 11.8933 9.79422 14.163C9.79422 16.4328 11.6408 18.2793 13.9105 18.2793C16.1802 18.2793 18.0268 16.4328 18.0268 14.163C18.0268 11.8933 16.1802 10.0468 13.9105 10.0468ZM13.9105 16.9186C12.3911 16.9186 11.155 15.6825 11.155 14.163C11.155 12.6436 12.3911 11.4075 13.9105 11.4075C15.4299 11.4075 16.666 12.6436 16.666 14.163C16.666 15.6825 15.4299 16.9186 13.9105 16.9186Z" fill="#707070"/>
    <path d="M14.8971 13.4826H14.5909V12.7682C14.5909 12.3925 14.2863 12.0879 13.9105 12.0879C13.5347 12.0879 13.2301 12.3925 13.2301 12.7682V14.163C13.2301 14.5388 13.5347 14.8434 13.9105 14.8434H14.8971C15.2728 14.8434 15.5774 14.5388 15.5774 14.163C15.5774 13.7872 15.2728 13.4826 14.8971 13.4826Z" fill="#707070"/>
    <path d="M10.7807 8.68598C11.1565 8.68598 11.4611 8.38136 11.4611 8.0056C11.4611 7.62984 11.1565 7.32523 10.7807 7.32523C10.405 7.32523 10.1004 7.62984 10.1004 8.0056C10.1004 8.38136 10.405 8.68598 10.7807 8.68598Z" fill="#707070"/>
    <path d="M7.82112 11.6456C8.19689 11.6456 8.5015 11.341 8.5015 10.9653C8.5015 10.5895 8.19689 10.2849 7.82112 10.2849C7.44536 10.2849 7.14075 10.5895 7.14075 10.9653C7.14075 11.341 7.44536 11.6456 7.82112 11.6456Z" fill="#707070"/>
    <path d="M4.8615 8.68598C5.23726 8.68598 5.54188 8.38136 5.54188 8.0056C5.54188 7.62984 5.23726 7.32523 4.8615 7.32523C4.48574 7.32523 4.18112 7.62984 4.18112 8.0056C4.18112 8.38136 4.48574 8.68598 4.8615 8.68598Z" fill="#707070"/>
    <path d="M4.8615 11.6456C5.23726 11.6456 5.54188 11.341 5.54188 10.9653C5.54188 10.5895 5.23726 10.2849 4.8615 10.2849C4.48574 10.2849 4.18112 10.5895 4.18112 10.9653C4.18112 11.341 4.48574 11.6456 4.8615 11.6456Z" fill="#707070"/>
    <path d="M4.8615 14.6053C5.23726 14.6053 5.54188 14.3006 5.54188 13.9249C5.54188 13.5491 5.23726 13.2445 4.8615 13.2445C4.48574 13.2445 4.18112 13.5491 4.18112 13.9249C4.18112 14.3006 4.48574 14.6053 4.8615 14.6053Z" fill="#707070"/>
    <path d="M7.82112 14.6053C8.19689 14.6053 8.5015 14.3006 8.5015 13.9249C8.5015 13.5491 8.19689 13.2445 7.82112 13.2445C7.44536 13.2445 7.14075 13.5491 7.14075 13.9249C7.14075 14.3006 7.44536 14.6053 7.82112 14.6053Z" fill="#707070"/>
    <path d="M7.82112 8.68598C8.19689 8.68598 8.5015 8.38136 8.5015 8.0056C8.5015 7.62984 8.19689 7.32523 7.82112 7.32523C7.44536 7.32523 7.14075 7.62984 7.14075 8.0056C7.14075 8.38136 7.44536 8.68598 7.82112 8.68598Z" fill="#707070"/>
</svg>
