<svg width="35" height="25" viewBox="0 0 35 25" fill="none" xmlns="http://www.w3.org/2000/svg">
<path d="M10.4246 22.871L10.7738 22.5132L10.4246 22.871C10.7403 23.1791 11.1659 23.35 11.6071 23.35H32.8214C33.2627 23.35 33.6883 23.1791 34.004 22.871C34.3201 22.5626 34.5 22.1416 34.5 21.7C34.5 21.2584 34.3201 20.8374 34.004 20.529C33.6883 20.2209 33.2627 20.05 32.8214 20.05H11.6071C11.1659 20.05 10.7403 20.2209 10.4246 20.529L10.7738 20.8868L10.4246 20.529C10.1085 20.8374 9.92857 21.2584 9.92857 21.7C9.92857 22.1416 10.1085 22.5626 10.4246 22.871ZM10.4246 4.47104L10.7738 4.11317L10.4246 4.47104C10.7403 4.77907 11.1659 4.95 11.6071 4.95H32.8214C33.2627 4.95 33.6883 4.77907 34.004 4.47104L33.6548 4.11317L34.004 4.47104C34.3201 4.1626 34.5 3.74162 34.5 3.3C34.5 2.85838 34.3201 2.4374 34.004 2.12896L33.6548 2.48683L34.004 2.12896C33.6883 1.82093 33.2627 1.65 32.8214 1.65H11.6071C11.1659 1.65 10.7403 1.82093 10.4246 2.12896L10.7738 2.48683L10.4246 2.12896C10.1085 2.4374 9.92857 2.85838 9.92857 3.3C9.92857 3.74162 10.1085 4.1626 10.4246 4.47104ZM34.004 13.671L33.6548 13.3132L34.004 13.671C34.3201 13.3626 34.5 12.9416 34.5 12.5C34.5 12.0584 34.3201 11.6374 34.004 11.329C33.6883 11.0209 33.2627 10.85 32.8214 10.85H11.6071C11.1659 10.85 10.7403 11.0209 10.4246 11.329C10.1085 11.6374 9.92857 12.0584 9.92857 12.5C9.92857 12.9416 10.1085 13.3626 10.4246 13.671C10.7403 13.9791 11.1659 14.15 11.6071 14.15H32.8214C33.2627 14.15 33.6883 13.9791 34.004 13.671ZM3.35714 6.1C4.111 6.1 4.83638 5.80791 5.37308 5.28421C5.91021 4.76011 6.21429 4.04662 6.21429 3.3C6.21429 2.55338 5.91021 1.83989 5.37308 1.31579C4.83638 0.792093 4.111 0.5 3.35714 0.5C2.60329 0.5 1.87791 0.792093 1.3412 1.31579C0.804077 1.83989 0.5 2.55338 0.5 3.3C0.5 4.04662 0.804077 4.76011 1.3412 5.28421C1.87791 5.80791 2.60329 6.1 3.35714 6.1ZM3.35714 15.3C4.111 15.3 4.83638 15.0079 5.37308 14.4842C5.91021 13.9601 6.21429 13.2466 6.21429 12.5C6.21429 11.7534 5.91021 11.0399 5.37308 10.5158C4.83638 9.99209 4.111 9.7 3.35714 9.7C2.60329 9.7 1.87791 9.99209 1.3412 10.5158C0.804077 11.0399 0.5 11.7534 0.5 12.5C0.5 13.2466 0.804077 13.9601 1.3412 14.4842C1.87791 15.0079 2.60329 15.3 3.35714 15.3ZM3.35714 24.5C4.111 24.5 4.83638 24.2079 5.37308 23.6842C5.91021 23.1601 6.21429 22.4466 6.21429 21.7C6.21429 20.9534 5.91021 20.2399 5.37308 19.7158C4.83638 19.1921 4.111 18.9 3.35714 18.9C2.60329 18.9 1.87791 19.1921 1.3412 19.7158C0.804077 20.2399 0.5 20.9534 0.5 21.7C0.5 22.4466 0.804077 23.1601 1.3412 23.6842C1.87791 24.2079 2.60329 24.5 3.35714 24.5Z" fill="#212121" stroke="white"/>
</svg>
